<svg width="36" height="36" viewBox="0 0 36 36" fill="none" xmlns="http://www.w3.org/2000/svg">
<rect x="0.5" y="0.5" width="35" height="35" rx="7.5" stroke="#E5E7EB"/>
<g clip-path="url(#clip0_11842_8093)">
<path d="M26.16 23.5863C25.8576 24.2851 25.4996 24.9283 25.0848 25.5196C24.5194 26.3257 24.0564 26.8838 23.6996 27.1936C23.1466 27.7022 22.554 27.9627 21.9194 27.9775C21.4639 27.9775 20.9145 27.8479 20.2751 27.585C19.6335 27.3232 19.0439 27.1936 18.5047 27.1936C17.9393 27.1936 17.3329 27.3232 16.6843 27.585C16.0347 27.8479 15.5114 27.985 15.1113 27.9985C14.5028 28.0245 13.8962 27.7566 13.2908 27.1936C12.9044 26.8566 12.4211 26.2788 11.8421 25.4603C11.2209 24.5863 10.7102 23.5727 10.3101 22.4172C9.88156 21.1691 9.66675 19.9605 9.66675 18.7904C9.66675 17.4501 9.95637 16.2941 10.5365 15.3253C10.9924 14.5472 11.5989 13.9334 12.358 13.4828C13.1171 13.0322 13.9374 12.8026 14.8207 12.7879C15.304 12.7879 15.9378 12.9374 16.7254 13.2312C17.5108 13.526 18.0151 13.6755 18.2362 13.6755C18.4015 13.6755 18.9618 13.5007 19.9115 13.1522C20.8096 12.829 21.5676 12.6952 22.1886 12.7479C23.8712 12.8837 25.1354 13.547 25.9761 14.742C24.4712 15.6538 23.7268 16.931 23.7416 18.5693C23.7552 19.8454 24.2181 20.9074 25.128 21.7506C25.5403 22.1419 26.0008 22.4444 26.5131 22.6592C26.402 22.9814 26.2847 23.29 26.16 23.5863ZM22.3009 8.40036C22.3009 9.40059 21.9355 10.3345 21.2071 11.1989C20.3281 12.2265 19.265 12.8203 18.112 12.7266C18.0973 12.6067 18.0888 12.4804 18.0888 12.3476C18.0888 11.3874 18.5068 10.3598 19.2492 9.51958C19.6198 9.09416 20.0911 8.74043 20.6627 8.45826C21.233 8.18029 21.7725 8.02657 22.2799 8.00024C22.2947 8.13396 22.3009 8.26768 22.3009 8.40035V8.40036Z" fill="black"/>
</g>
<defs>
<clipPath id="clip0_11842_8093">
<rect width="20" height="20" fill="white" transform="translate(8 8)"/>
</clipPath>
</defs>
</svg>
